<?xml version="1.0" standalone="no"?><!DOCTYPE svg PUBLIC "-//W3C//DTD SVG 1.1//EN" "http://www.w3.org/Graphics/SVG/1.1/DTD/svg11.dtd"><svg t="1754289043423" class="icon" viewBox="0 0 1024 1024" version="1.1" xmlns="http://www.w3.org/2000/svg" p-id="7401" xmlns:xlink="http://www.w3.org/1999/xlink" width="200" height="200"><path d="M527.16 324h-30.32L330.65 210.92A27 27 0 1 1 361 166.35l151 102.74 151-102.73a27 27 0 0 1 30.31 44.58l-122.93 83.6z" fill="#FF9600" p-id="7402"></path><path d="M829.78 862.32H194.22a81.58 81.58 0 0 1-81.42-81.43V354.16a81.57 81.57 0 0 1 19.7-53.05l0.09-0.1a81.58 81.58 0 0 1 61.63-28.28h635.56a81.6 81.6 0 0 1 81.42 81.43v426.73a80.83 80.83 0 0 1-22.84 56.42c-0.35 0.39-0.71 0.76-1.07 1.13a80.82 80.82 0 0 1-57.51 23.88z m38.45-42.94zM173.38 336.26a27.26 27.26 0 0 0-6.68 17.9v426.73a27.67 27.67 0 0 0 27.52 27.52h635.56A27.2 27.2 0 0 0 848.5 801l0.67-0.69a27.3 27.3 0 0 0 8.13-19.39V354.16a27.71 27.71 0 0 0-27.52-27.52H194.22a27.67 27.67 0 0 0-20.84 9.62z" fill="#142E4F" p-id="7403"></path><path d="M438.75 713.3a27 27 0 0 1-27-27V447.24a27 27 0 0 1 41.94-22.41l178.88 119.55a27 27 0 0 1 0 44.82L453.73 708.75a26.94 26.94 0 0 1-14.98 4.55z m26.95-215.62v138.23l103.39-69.12z" fill="#FF9600" p-id="7404"></path></svg>